<svg width="30" height="39" viewBox="0 0 30 39" fill="none" xmlns="http://www.w3.org/2000/svg">
<path d="M26.25 4.875H22.0406C21.0078 2.04141 18.2578 0 15 0C11.7422 0 8.99219 2.04141 7.96094 4.875H3.75C1.67969 4.875 0 6.51117 0 8.53125V35.3438C0 37.3623 1.67969 39 3.75 39H26.25C28.3203 39 30 37.3638 30 35.3438V8.53125C30 6.51117 28.3203 4.875 26.25 4.875ZM15 4.875C16.3805 4.875 17.5 5.96654 17.5 7.3125C17.5 8.65846 16.3805 9.75 15 9.75C13.6195 9.75 12.5 8.66074 12.5 7.3125C12.5 5.96426 13.6172 4.875 15 4.875ZM22.1016 20.018L15.2266 28.5492C14.9104 28.942 14.4437 29.192 13.9352 29.2395C13.875 29.1814 13.8125 29.25 13.75 29.25C13.3045 29.25 12.8711 29.0953 12.5297 28.8097L8.15469 25.1534C7.36875 24.4964 7.27813 23.342 7.95203 22.5757C8.62461 21.8095 9.80906 21.7211 10.5958 22.3782L13.4848 24.792L19.1505 17.7629C19.7902 16.9677 20.9708 16.8321 21.7833 17.4535C22.6016 18.0756 22.7422 19.2258 22.1016 20.018Z" fill="#AE934F"/>
</svg>
