
<svg width="25" height="20" viewBox="0 0 25 20" fill="none" xmlns="http://www.w3.org/2000/svg">
  <path d="M0 5.46992V4.68867C0 4.04145 0.524658 3.51679 1.17188 3.51679H18.75V1.17304C18.75 0.129733 20.0146 -0.391507 20.7505 0.344381L24.6568 4.25063C25.1144 4.7083 25.1144 5.45029 24.6568 5.90791L20.7505 9.81416C20.0174 10.5472 18.75 10.0332 18.75 8.98554V6.64179H1.17188C0.524658 6.64179 0 6.11714 0 5.46992ZM23.8281 12.8918H6.25V10.548C6.25 9.50732 4.98721 8.98164 4.24946 9.71938L0.343213 13.6256C-0.114404 14.0833 -0.114404 14.8253 0.343213 15.2829L4.24946 19.1892C4.98325 19.9229 6.25 19.4073 6.25 18.3605V16.0168H23.8281C24.4753 16.0168 25 15.4921 25 14.8449V14.0637C25 13.4165 24.4753 12.8918 23.8281 12.8918Z" fill="#AE934F"/>
</svg>
