<svg width="27" height="21" viewBox="0 0 27 21" fill="none" xmlns="http://www.w3.org/2000/svg">
<path d="M10.8 1.96875C10.8 0.881426 11.707 0 12.825 0H24.975C26.093 0 27 0.881426 27 1.96875V19.0312C27 20.1182 26.093 21 24.975 21H16.0861C16.1578 20.758 16.2 20.5734 16.2 20.3438V10.3893C16.9847 10.1186 17.55 9.38848 17.55 8.53125V7.21875C17.55 6.13184 16.643 5.25 15.525 5.25H10.8V1.96875ZM24.1017 14.2447C24.3675 13.9904 24.3675 13.5721 24.1017 13.3178L21.4017 10.6928C21.1402 10.4344 20.7098 10.4344 20.4483 10.6928L17.7483 13.3178C17.4825 13.5721 17.4825 13.9904 17.7483 14.2447C18.0098 14.5031 18.4402 14.5031 18.7017 14.2447L20.25 12.7395V17.7188C20.25 18.0797 20.5538 18.375 20.925 18.375C21.2963 18.375 21.6 18.0797 21.6 17.7188V12.7395L23.1483 14.2447C23.4098 14.5031 23.8402 14.5031 24.1017 14.2447ZM0 7.21875C0 6.85781 0.302231 6.5625 0.675 6.5625H15.525C15.8963 6.5625 16.2 6.85781 16.2 7.21875V8.53125C16.2 8.89219 15.8963 9.1875 15.525 9.1875H0.675C0.302231 9.1875 0 8.89219 0 8.53125V7.21875ZM14.85 19.6875C14.85 20.4135 14.2467 21 13.5 21H2.7C1.95455 21 1.35 20.4135 1.35 19.6875V10.5H14.85V19.6875ZM6.075 13.125C5.70375 13.125 5.4 13.4203 5.4 13.7812C5.4 14.1422 5.70375 14.4375 6.075 14.4375H10.125C10.4963 14.4375 10.8 14.1422 10.8 13.7812C10.8 13.4203 10.4963 13.125 10.125 13.125H6.075Z" fill="#AE934F"/>
</svg>
