<svg width="18" height="18" viewBox="0 0 18 18" fill="none" xmlns="http://www.w3.org/2000/svg">
<path d="M10.909 3.41895C10.6277 3.2959 10.2937 3.42773 10.1707 3.71777L8.99297 6.46875C8.21953 6.4793 7.59375 7.10156 7.59375 7.875C7.59375 8.65266 8.22234 9.28125 9 9.28125C9.77766 9.28125 10.4062 8.65195 10.4062 7.875C10.4062 7.50586 10.2568 7.17188 10.0195 6.92156L11.2061 4.15723C11.3309 3.8707 11.1937 3.54375 10.909 3.41895ZM15.75 2.25H13.7732C12.6387 0.875742 10.923 0 9 0C7.07695 0 5.36133 0.875742 4.22578 2.25H2.25C1.01074 2.25 0 3.26074 0 4.5V15.75C0 16.9893 1.01074 18 2.25 18H15.75C16.9893 18 18 16.9893 18 15.75V4.5C18 3.26074 16.991 2.25 15.75 2.25ZM9 10.6875C6.51867 10.6875 4.5 8.66883 4.5 6.1875C4.5 3.70617 6.51867 1.6875 9 1.6875C11.4813 1.6875 13.5 3.70617 13.5 6.1875C13.5 8.66883 11.482 10.6875 9 10.6875Z" fill="#AE934F"/>
</svg>
