<svg width="14" height="19" viewBox="0 0 14 19" fill="none" xmlns="http://www.w3.org/2000/svg">
<path d="M12.25 2.375H9.33333C9.33333 1.06504 8.28698 0 7 0C5.71302 0 4.66667 1.06504 4.66667 2.375H1.75C0.783854 2.375 0 3.17285 0 4.15625V17.2188C0 18.2021 0.783854 19 1.75 19H12.25C13.2161 19 14 18.2021 14 17.2188V4.15625C14 3.17285 13.2161 2.375 12.25 2.375ZM3.5 15.7344C3.0151 15.7344 2.625 15.3373 2.625 14.8438C2.625 14.3502 3.0151 13.9531 3.5 13.9531C3.9849 13.9531 4.375 14.3502 4.375 14.8438C4.375 15.3373 3.9849 15.7344 3.5 15.7344ZM3.5 12.1719C3.0151 12.1719 2.625 11.7748 2.625 11.2812C2.625 10.7877 3.0151 10.3906 3.5 10.3906C3.9849 10.3906 4.375 10.7877 4.375 11.2812C4.375 11.7748 3.9849 12.1719 3.5 12.1719ZM3.5 8.60938C3.0151 8.60938 2.625 8.21231 2.625 7.71875C2.625 7.2252 3.0151 6.82812 3.5 6.82812C3.9849 6.82812 4.375 7.2252 4.375 7.71875C4.375 8.21231 3.9849 8.60938 3.5 8.60938ZM7 1.48438C7.4849 1.48438 7.875 1.88145 7.875 2.375C7.875 2.86855 7.4849 3.26562 7 3.26562C6.5151 3.26562 6.125 2.86855 6.125 2.375C6.125 1.88145 6.5151 1.48438 7 1.48438ZM11.6667 15.1406C11.6667 15.3039 11.5354 15.4375 11.375 15.4375H6.125C5.96458 15.4375 5.83333 15.3039 5.83333 15.1406V14.5469C5.83333 14.3836 5.96458 14.25 6.125 14.25H11.375C11.5354 14.25 11.6667 14.3836 11.6667 14.5469V15.1406ZM11.6667 11.5781C11.6667 11.7414 11.5354 11.875 11.375 11.875H6.125C5.96458 11.875 5.83333 11.7414 5.83333 11.5781V10.9844C5.83333 10.8211 5.96458 10.6875 6.125 10.6875H11.375C11.5354 10.6875 11.6667 10.8211 11.6667 10.9844V11.5781ZM11.6667 8.01562C11.6667 8.17891 11.5354 8.3125 11.375 8.3125H6.125C5.96458 8.3125 5.83333 8.17891 5.83333 8.01562V7.42188C5.83333 7.25859 5.96458 7.125 6.125 7.125H11.375C11.5354 7.125 11.6667 7.25859 11.6667 7.42188V8.01562Z" fill="#AE934F"/>
</svg>
