<svg width="24" height="19" viewBox="0 0 24 19" fill="none" xmlns="http://www.w3.org/2000/svg">
<path d="M20 2.28125C20 1.19393 19.1042 0.3125 18 0.3125H6C4.89583 0.3125 4 1.19393 4 2.28125V14.75H20V2.28125ZM15.7875 5.84141L12.1208 10.4352C11.9529 10.6466 11.7042 10.7812 11.4321 10.8068C11.4 10.7756 11.3625 10.7756 11.2958 10.7756C11.0575 10.7756 10.8288 10.6928 10.6467 10.539L8.31333 8.57022C7.92917 8.25312 7.88333 7.62969 8.24167 7.21953C8.60233 6.80691 9.23375 6.76057 9.65167 7.11314L11.1921 8.41292L14.2142 4.628C14.5553 4.20103 15.1854 4.12679 15.6179 4.46139C16.0542 4.79551 16.1292 5.41484 15.7875 5.84141ZM22 10.8125H21.3333V15.4062C21.3333 15.7687 21.0348 16.0625 20.6667 16.0625H3.33333C2.965 16.0625 2.66667 15.7672 2.66667 15.4062V10.8125H2C0.895417 10.8125 0 11.6943 0 12.7812V16.7188C0 17.8057 0.895417 18.6875 2 18.6875H22C23.1046 18.6875 24 17.8061 24 16.7188V12.7812C24 11.6943 23.1042 10.8125 22 10.8125Z" fill="#AE934F"/>
</svg>
