<svg width="19" height="19" viewBox="0 0 19 19" fill="none" xmlns="http://www.w3.org/2000/svg">
  <path d="M14.25 3.5625V0H10.0938C9.10998 0 8.3125 0.79748 8.3125 1.78125V12.4688C8.3125 13.4525 9.10998 14.25 10.0938 14.25H17.2188C18.2025 14.25 19 13.4525 19 12.4688V4.75H15.4709C14.7844 4.75 14.25 4.21562 14.25 3.5625ZM15.4375 0V3.5625H19L15.4375 0ZM7.125 13.0625V4.75H1.78125C0.79748 4.75 0 5.54748 0 6.53125V17.2188C0 18.2025 0.79748 19 1.78125 19H8.90625C9.89002 19 10.6875 18.2025 10.6875 17.2188V15.4375H9.5C8.19004 15.4375 7.125 14.3725 7.125 13.0625Z" fill="#AE934F"/>
</svg>
