<svg width="35" height="39" viewBox="0 0 35 39" fill="none" xmlns="http://www.w3.org/2000/svg">
<path d="M12.5 2.4375V4.875H22.5V2.4375C22.5 1.09154 23.6172 0 25 0C26.3828 0 27.5 1.09154 27.5 2.4375V4.875H31.25C33.3203 4.875 35 6.51193 35 8.53125V12.1875H0V8.53125C0 6.51193 1.67891 4.875 3.75 4.875H7.5V2.4375C7.5 1.09154 8.61719 0 10 0C11.3828 0 12.5 1.09154 12.5 2.4375ZM0 14.625H35V35.3438C35 37.3623 33.3203 39 31.25 39H3.75C1.67891 39 0 37.3623 0 35.3438V14.625ZM5 23.1562C5 23.8266 5.55937 24.375 6.25 24.375H8.75C9.4375 24.375 10 23.8266 10 23.1562V20.7188C10 20.0484 9.4375 19.5 8.75 19.5H6.25C5.55937 19.5 5 20.0484 5 20.7188V23.1562ZM15 23.1562C15 23.8266 15.5625 24.375 16.25 24.375H18.75C19.4375 24.375 20 23.8266 20 23.1562V20.7188C20 20.0484 19.4375 19.5 18.75 19.5H16.25C15.5625 19.5 15 20.0484 15 20.7188V23.1562ZM26.25 19.5C25.5625 19.5 25 20.0484 25 20.7188V23.1562C25 23.8266 25.5625 24.375 26.25 24.375H28.75C29.4375 24.375 30 23.8266 30 23.1562V20.7188C30 20.0484 29.4375 19.5 28.75 19.5H26.25ZM5 32.9062C5 33.5766 5.55937 34.125 6.25 34.125H8.75C9.4375 34.125 10 33.5766 10 32.9062V30.4688C10 29.7984 9.4375 29.25 8.75 29.25H6.25C5.55937 29.25 5 29.7984 5 30.4688V32.9062ZM16.25 29.25C15.5625 29.25 15 29.7984 15 30.4688V32.9062C15 33.5766 15.5625 34.125 16.25 34.125H18.75C19.4375 34.125 20 33.5766 20 32.9062V30.4688C20 29.7984 19.4375 29.25 18.75 29.25H16.25ZM25 32.9062C25 33.5766 25.5625 34.125 26.25 34.125H28.75C29.4375 34.125 30 33.5766 30 32.9062V30.4688C30 29.7984 29.4375 29.25 28.75 29.25H26.25C25.5625 29.25 25 29.7984 25 30.4688V32.9062Z" fill="#AE934F"/>
</svg>
