<svg width="25" height="33" viewBox="0 0 25 33" fill="none" xmlns="http://www.w3.org/2000/svg">
<path d="M21.875 4.125H16.6667C16.6667 1.8498 14.7982 0 12.5 0C10.2018 0 8.33333 1.8498 8.33333 4.125H3.125C1.39974 4.125 0 5.51074 0 7.21875V29.9062C0 31.6143 1.39974 33 3.125 33H21.875C23.6003 33 25 31.6143 25 29.9062V7.21875C25 5.51074 23.6003 4.125 21.875 4.125ZM6.25 27.3281C5.38411 27.3281 4.6875 26.6385 4.6875 25.7812C4.6875 24.924 5.38411 24.2344 6.25 24.2344C7.11589 24.2344 7.8125 24.924 7.8125 25.7812C7.8125 26.6385 7.11589 27.3281 6.25 27.3281ZM6.25 21.1406C5.38411 21.1406 4.6875 20.451 4.6875 19.5938C4.6875 18.7365 5.38411 18.0469 6.25 18.0469C7.11589 18.0469 7.8125 18.7365 7.8125 19.5938C7.8125 20.451 7.11589 21.1406 6.25 21.1406ZM6.25 14.9531C5.38411 14.9531 4.6875 14.2635 4.6875 13.4062C4.6875 12.549 5.38411 11.8594 6.25 11.8594C7.11589 11.8594 7.8125 12.549 7.8125 13.4062C7.8125 14.2635 7.11589 14.9531 6.25 14.9531ZM12.5 2.57812C13.3659 2.57812 14.0625 3.26777 14.0625 4.125C14.0625 4.98223 13.3659 5.67188 12.5 5.67188C11.6341 5.67188 10.9375 4.98223 10.9375 4.125C10.9375 3.26777 11.6341 2.57812 12.5 2.57812ZM20.8333 26.2969C20.8333 26.5805 20.599 26.8125 20.3125 26.8125H10.9375C10.651 26.8125 10.4167 26.5805 10.4167 26.2969V25.2656C10.4167 24.982 10.651 24.75 10.9375 24.75H20.3125C20.599 24.75 20.8333 24.982 20.8333 25.2656V26.2969ZM20.8333 20.1094C20.8333 20.393 20.599 20.625 20.3125 20.625H10.9375C10.651 20.625 10.4167 20.393 10.4167 20.1094V19.0781C10.4167 18.7945 10.651 18.5625 10.9375 18.5625H20.3125C20.599 18.5625 20.8333 18.7945 20.8333 19.0781V20.1094ZM20.8333 13.9219C20.8333 14.2055 20.599 14.4375 20.3125 14.4375H10.9375C10.651 14.4375 10.4167 14.2055 10.4167 13.9219V12.8906C10.4167 12.607 10.651 12.375 10.9375 12.375H20.3125C20.599 12.375 20.8333 12.607 20.8333 12.8906V13.9219Z" fill="#AE934F"/>
</svg>
