<svg width="77" height="103" viewBox="0 0 77 103" fill="none" xmlns="http://www.w3.org/2000/svg">
<path d="M44.9167 27.3594V0H4.8125C2.14557 0 0 2.15254 0 4.82812V98.1719C0 100.847 2.14557 103 4.8125 103H72.1875C74.8544 103 77 100.847 77 98.1719V32.1875H49.7292C47.0823 32.1875 44.9167 30.0148 44.9167 27.3594ZM60.2465 69.8791L40.9123 89.1312C39.5788 90.461 37.4252 90.461 36.0917 89.1312L16.7575 69.8791C14.7222 67.8533 16.1499 64.375 19.0134 64.375H32.0833V48.2812C32.0833 46.5029 33.5191 45.0625 35.2917 45.0625H41.7083C43.4809 45.0625 44.9167 46.5029 44.9167 48.2812V64.375H57.9866C60.85 64.375 62.2778 67.8533 60.2465 69.8791ZM75.5964 21.123L55.9654 1.4082C55.063 0.50293 53.8398 0 52.5565 0H51.3333V25.75H77V24.5229C77 23.2555 76.4987 22.0283 75.5964 21.123Z" fill="#E5E5E5"/>
</svg>