<svg width="16" height="22" viewBox="0 0 16 22" fill="none" xmlns="http://www.w3.org/2000/svg">
<path d="M16 5.5H10.6667V0L16 5.5ZM10.6667 6.875H16V19.9375C16 21.0766 15.1046 22 14 22H2C0.895417 22 0 21.0762 0 19.9375V2.0625C0 0.923398 0.895417 0 2 0H9.33333L9.3335 5.5C9.33333 6.26055 9.92917 6.875 10.6667 6.875ZM10.625 12.6758L9 14.3559V9.96875C9 9.39941 8.55208 8.9375 8 8.9375C7.44792 8.9375 7 9.40156 7 9.96875V14.3559L5.3375 12.6758C5.17917 12.4738 4.925 12.375 4.66667 12.375C4.40833 12.375 4.155 12.4738 3.95958 12.6758C3.56896 13.0786 3.56896 13.7311 3.95958 14.1341L7.29292 17.5716C7.68354 17.9745 8.31625 17.9745 8.70708 17.5716L12.0404 14.1341C12.431 13.7313 12.431 13.0788 12.0404 12.6758C11.6498 12.2727 11.0167 12.2762 10.625 12.6758Z" fill="white"/>
</svg>
