<svg width="22" height="22" viewBox="0 0 19 19" fill="none" xmlns="http://www.w3.org/2000/svg">
<path d="M14.25 0V4.75H19L14.25 0ZM13.0625 4.75V0H6.53125C5.54785 0 4.75 0.79748 4.75 1.78125V10.6875H11.2107L9.76236 9.23912C9.41446 8.89122 9.41446 8.32771 9.76236 7.97963C10.1103 7.63154 10.6738 7.63173 11.0219 7.97963L13.9906 10.9484C14.3385 11.2963 14.3385 11.8598 13.9906 12.2079L11.0219 15.1766C10.674 15.5245 10.1104 15.5245 9.76236 15.1766C9.58535 15.0033 9.5 14.777 9.5 14.5469C9.5 14.3168 9.58698 14.0912 9.76092 13.9171L11.2107 12.4688H4.75V17.2188C4.75 18.2021 5.54785 19 6.53125 19H17.2188C18.2025 19 19 18.2025 19 17.2188V5.9375H14.2834C13.5932 5.9375 13.0625 5.40684 13.0625 4.75ZM0.890625 10.6875C0.398926 10.6875 0 11.0846 0 11.5781C0 12.0698 0.398926 12.4688 0.890625 12.4688H4.75V10.6875H0.890625Z" fill="white"/>
</svg>
