<svg width="19" height="19" viewBox="0 0 19 19" fill="none" xmlns="http://www.w3.org/2000/svg">
<path d="M9.5 0C14.7473 0 19 4.25273 19 9.5C19 14.7473 14.7473 19 9.5 19C7.48496 19 5.61094 18.3691 4.0709 17.2967C3.53281 16.8885 3.4007 16.1797 3.77773 15.6416C4.15254 15.1035 4.89102 14.9736 5.4291 15.3484C6.5832 16.1537 7.98594 16.625 9.5 16.625C13.4336 16.625 16.625 13.4336 16.625 9.5C16.625 5.53301 13.4336 2.375 9.5 2.375C7.4998 2.375 5.75195 3.17137 4.46055 4.46055L5.60352 5.60352C6.16387 6.16387 5.7668 7.125 4.97637 7.125H0.890625C0.398926 7.125 0 6.72793 0 6.23438V2.15012C0 1.35672 0.959277 0.959277 1.52037 1.52037L2.78246 2.78246C4.50137 1.06467 6.87637 0 9.4666 0H9.5ZM9.5 4.75C9.99355 4.75 10.3906 5.14707 10.3906 5.64062V9.13262L12.7693 11.541C13.1479 11.8898 13.1479 12.4539 12.7693 12.7693C12.4539 13.1479 11.8898 13.1479 11.541 12.7693L8.86914 10.0975C8.70215 9.96387 8.60938 9.7375 8.60938 9.5V5.64062C8.60938 5.14707 9.00645 4.75 9.5 4.75Z" fill="white"/>
</svg>
