<svg width="15" height="15" viewBox="0 0 15 15" fill="none" xmlns="http://www.w3.org/2000/svg">
<path d="M7.5 0C3.35742 0 0 3.35742 0 7.5C0 11.6426 3.35742 15 7.5 15C11.6426 15 15 11.6426 15 7.5C15 3.35742 11.6426 0 7.5 0ZM6.79688 4.45312C6.79688 4.06641 7.11328 3.75 7.5 3.75C7.88672 3.75 8.20312 4.06494 8.20312 4.45312V8.20312C8.20312 8.59131 7.88818 8.90625 7.5 8.90625C7.11182 8.90625 6.79688 8.59277 6.79688 8.20312V4.45312ZM7.5 11.7188C6.99141 11.7188 6.57891 11.3062 6.57891 10.7977C6.57891 10.2891 6.99111 9.87656 7.5 9.87656C8.00889 9.87656 8.42109 10.2891 8.42109 10.7977C8.41992 11.3057 8.00977 11.7188 7.5 11.7188Z" fill="#AE934F"/>
</svg>
