<svg width="22" height="13" viewBox="0 0 22 13" fill="none" xmlns="http://www.w3.org/2000/svg">
<path d="M21.1124 9.11641C20.9852 8.81758 20.6827 8.59512 20.3492 8.59512H18.6992V3.84375C18.6992 2.37949 17.4652 1.1875 15.9492 1.1875H11.5492C10.9418 1.1875 10.4492 1.66264 10.4492 2.25C10.4492 2.83736 10.9418 3.3125 11.5492 3.3125H15.9492C16.2517 3.3125 16.4992 3.55156 16.4992 3.84375V8.59512H14.8492C14.5157 8.59512 14.215 8.78916 14.0872 9.08719C13.9593 9.38522 14.0302 9.72768 14.266 9.95578L17.016 12.6127C17.1764 12.7986 17.3896 12.875 17.5992 12.875C17.8089 12.875 18.0214 12.7972 18.1826 12.6415L20.9326 9.98464C21.1674 9.75723 21.2396 9.41523 21.1124 9.11641ZM10.4492 9.6875H6.04925C5.74675 9.6875 5.49925 9.44844 5.49925 9.15625V4.375H7.14925C7.48279 4.375 7.78347 4.18096 7.91134 3.88293C8.03922 3.5849 7.96827 3.24244 7.73249 3.01434L4.98249 0.357422C4.82206 0.202695 4.60893 0.125 4.39925 0.125C4.18956 0.125 3.97643 0.202695 3.81487 0.358418L1.06487 3.01533C0.83009 3.24277 0.759278 3.58477 0.887153 3.88359C1.01503 4.18242 1.31581 4.375 1.64925 4.375H3.29925V9.15625C3.29925 10.6205 4.53331 11.8125 6.04925 11.8125H10.4492C11.0567 11.8125 11.5492 11.3374 11.5492 10.75C11.5492 10.1626 11.0577 9.6875 10.4492 9.6875Z" fill="#AE934F"/>
</svg>
