<svg width="20" height="20" viewBox="0 0 20 20" fill="none" xmlns="http://www.w3.org/2000/svg">
  <path d="M17.5 7.5H2.5C1.11914 7.5 0 8.62109 0 10V13.75C0 14.4402 0.559766 15 1.25 15H2.5V18.75C2.5 19.4402 3.05977 20 3.75 20H16.25C16.9402 20 17.5 19.4402 17.5 18.75V15H18.75C19.4402 15 20 14.4402 20 13.75V10C20 8.62109 18.8789 7.5 17.5 7.5ZM15 17.5H5V13.75H15V17.5ZM16.875 11.5625C16.3574 11.5625 15.9375 11.1426 15.9375 10.625C15.9375 10.1066 16.3574 9.6875 16.875 9.6875C17.3926 9.6875 17.8125 10.1066 17.8125 10.625C17.8125 11.1445 17.3945 11.5625 16.875 11.5625ZM5 2.5H13.9648L15 3.53555V6.25H17.5V3.01758C17.5 2.68617 17.3682 2.36836 17.1338 2.13398L15.3662 0.366406C15.1328 0.131836 14.8125 0 14.4844 0H3.75C3.06016 0 2.5 0.559766 2.5 1.25V6.25H5V2.5Z" fill="white"/>
</svg>
