<?xml version="1.0" encoding="utf-8"?>
<!-- Generator: Adobe Illustrator 25.0.0, SVG Export Plug-In . SVG Version: 6.00 Build 0)  -->
<svg version="1.1" id="Layer_1" xmlns="http://www.w3.org/2000/svg" xmlns:xlink="http://www.w3.org/1999/xlink" x="0px" y="0px"
	 viewBox="0 0 185.7 69.6" style="enable-background:new 0 0 185.7 69.6;" xml:space="preserve">
<style type="text/css">
	.st0{fill:#8A6E4B;}
</style>
<g id="Layer_2_1_">
	<g id="Layer_1-2">
		<path class="st0" d="M35.3,22.6L33.2,21l0.2-5c0-0.2,0.1-0.4,0.2-0.6C35,13.6,35.1,11,33.8,9c-0.4-0.6-0.7-1.5,0.6-1.7
			c3.4-0.7,6.8,1.4,7.8,4.7c0.9,2.7-0.2,5.7-2.5,7.3C38,20.7,35.3,22.7,35.3,22.6"/>
		<path class="st0" d="M24.6,9.1c0.6-0.6,0.9-1.9-1-1.8c-1.3,0-7.1,0.1-7.5,6.6c-0.1,2.1,0.5,4.5,6.1,8.3c1.1,0.9,5,3.8,8.1,6.3
			c0.9,1,2.6,2.2,2.3,5.4c-0.1,1-0.1,2.5,1.4,1.5c1.7-1,6.5-5.5,1.2-11.8c-1.2-0.9-7.5-5.7-8.9-6.7c-1.1-1.2-2.8-2.5-2.5-5.6
			C23.9,10.6,24.2,9.8,24.6,9.1"/>
		<path class="st0" d="M25.5,25.8c0-0.3-0.3-0.7-1-0.4c-1.4,0.5-5.8,6.3-1.4,10.6c1.1,0.9,3.8,3,6.1,4.7c1.1,0.7,3.6,2.1,2.9,5.9
			c-0.1,0.4,0.2,0.7,0.6,0.8c0.2,0,0.5-0.1,0.6-0.2c1.4-1,5.8-4.7,1.1-9.6c-1.2-1.2-6.5-4.9-7.2-5.5c-0.9-1.2-1.5-2.6-1.6-4.1
			C25.6,27.7,25.5,26.1,25.5,25.8"/>
		<path class="st0" d="M26,39.2c0-0.3-0.2-0.8-1.1-0.3c-2.3,1.7-3,4.8-1.8,7.5c0.8,1.9,4.9,4.1,7.5,6.2c0.9,1,1.3,2.3,1.1,3.5
			c-0.1,0.4-0.2,1.5,1.2,0.7c1.8-1.2,4-4.1,1.2-7.4c-0.8-0.7-4.9-3.9-6-4.7c-1.2-0.8-1.9-2.2-1.9-3.7C26,40.3,26,39.7,26,39.2"/>
		<path class="st0" d="M26.5,50.6c0-0.3-0.3-1.6-1.4-0.4c-0.6,0.8-3.4,4.2,0,7.6c1,0.9,5.7,4,5.9,4.5s0.5,1.1,0.1,3.4
			c0,0.5,0.1,1,0.8,0.5c0.7-0.5,3.2-2.5,1.8-6.4c-1-1.4-2.3-2.5-3.7-3.5c-1.2-1-2.9-1.9-3.4-3.8C26.5,51.9,26.5,51.3,26.5,50.6"/>
		<path class="st0" d="M27,60.1c0,0.3,0.2,5.9,0.2,5.9c0,0.3-0.2,0.9-0.8,0.5c-1.4-0.7-2.2-2.2-2.1-3.7c0-1.2,0.6-2.3,1.5-3
			C26.4,59.3,27,59.7,27,60.1"/>
		<path class="st0" d="M58.5,29.1C58.5,14.7,48.1,2.4,33.9,0v0.8C47.9,3.5,57,17.1,54.3,31c-1.9,9.6-9.1,17.4-18.5,20
			c0.2,0.5,0.3,1.1,0.3,1.6c0,0.6-0.1,1.2-0.4,1.8c-0.7,1.3-1.8,2.5-3.1,3.3l0.7,0.6C47.8,56.2,58.5,43.7,58.5,29.1"/>
		<path class="st0" d="M24.4,58.2C8.3,55.4-2.4,40.1,0.4,24C2.6,11.7,12.3,2.1,24.6,0v0.8C12.5,3.2,3.7,13.8,3.7,26.1
			c0,11.9,8.8,22.1,19.7,25.1c-0.5,1-0.8,2-0.9,3.2C22.7,55.8,23.3,57.2,24.4,58.2"/>
		<path class="st0" d="M32.2,20.1L26,15.4L25.8,12c0-0.6,0.4-1.1,0.9-1.1h5c0.4,0,0.8,0.2,0.8,1.2S32.2,20.1,32.2,20.1"/>
		<path class="st0" d="M26.4,26.6c-0.3,2.1,0.6,4.1,2.2,5.4c0.6,0.5,3.3,2.5,3.3,2.5c0-0.4,0.2-3.3-1.2-4.5
			C30,29.4,26.4,26.6,26.4,26.6"/>
		<path class="st0" d="M26.9,40c-0.1,1.5,0.6,3,1.9,3.9c0.3,0.3,2.4,1.8,2.6,2c0-0.5,0.4-2.3-0.7-3.2C30,42.3,26.9,40,26.9,40"/>
		<path class="st0" d="M27.3,51c-0.1,1.3,0.5,2.5,1.5,3.4c0.2,0.2,1.8,1.3,2.2,1.6c0.2-1-0.1-2.1-0.9-2.8C29.5,52.6,27.3,51,27.3,51
			"/>
		<path class="st0" d="M27.8,60.7l3,2.2c0,0,0,0.6,0,0.9c0,0.1-0.1,4.9-0.1,4.9c0,0.4-0.6,0.9-1.3,0.9S28,69.1,28,68.8
			S27.8,60.7,27.8,60.7"/>
		<path class="st0" d="M68.6,18.5c0.4,0.1,0.9,0.1,1.3,0.1c1.5,0,2.8-0.6,2.8-2.1s-1.3-2-3-2h-1.1V18.5z M68.6,12.1h1.1
			c1.8,0,2.7-0.7,2.7-1.8S71.5,8.6,70,8.6c-0.5,0-0.9,0-1.4,0.1L68.6,12.1z M65.3,6.5c1.4-0.2,2.8-0.3,4.3-0.3
			c1.5-0.1,3,0.1,4.3,0.8c1.1,0.6,1.7,1.7,1.7,2.9c0,1.4-1,2.7-2.4,3.1l0,0c1.7,0.4,2.9,1.9,2.9,3.6c0,1.2-0.5,2.4-1.5,3.1
			c-1,0.8-2.8,1.3-5.7,1.3c-1.2,0-2.4-0.1-3.6-0.2V6.5z"/>
		<path class="st0" d="M88.3,17.5c0,1.4,0,2.5,0.1,3.4h-2.8l-0.2-1.5h-0.1c-0.7,1.1-2,1.8-3.3,1.7c-2.2,0-3.7-1.3-3.7-4.6v-6.2h3.3
			V16c0,1.5,0.5,2.5,1.7,2.5c0.7,0,1.4-0.5,1.6-1.1c0.1-0.2,0.1-0.5,0.1-0.7v-6.3h3.3L88.3,17.5z"/>
		<path class="st0" d="M91,13.7c0-1.3,0-2.4-0.1-3.4h2.8l0.1,1.4h0.1c0.7-1.1,1.9-1.7,3.2-1.7c1.3-0.1,2.4,0.7,2.9,1.8l0,0
			c0.4-0.5,0.8-1,1.4-1.3c0.6-0.3,1.3-0.5,2-0.5c2,0,3.6,1.4,3.6,4.6v6.2h-3.2v-5.7c0-1.5-0.5-2.4-1.6-2.4c-0.7,0-1.3,0.5-1.5,1.1
			c-0.1,0.3-0.1,0.5-0.1,0.8v6.2h-3.2V15c0-1.3-0.5-2.2-1.5-2.2c-0.7,0-1.3,0.5-1.5,1.1c-0.1,0.3-0.1,0.6-0.1,0.8v6.1H91V13.7z"/>
		<path class="st0" d="M109.6,13.8c0-1.6,0-2.6-0.1-3.5h2.8l0.1,2h0.1c0.4-1.3,1.5-2.2,2.8-2.2c0.2,0,0.5,0,0.7,0.1v3.1
			c-0.3-0.1-0.6-0.1-0.9-0.1c-1.1-0.1-2,0.6-2.2,1.7c0,0.2-0.1,0.5-0.1,0.7v5.3h-3.3L109.6,13.8z"/>
		<path class="st0" d="M127.8,17.5c0,1.4,0,2.5,0.1,3.4H125l-0.2-1.5h-0.1c-0.7,1.1-2,1.8-3.3,1.7c-2.2,0-3.7-1.3-3.7-4.6v-6.2h3.2
			V16c0,1.5,0.5,2.5,1.7,2.5c0.7,0,1.4-0.5,1.6-1.1c0.1-0.2,0.1-0.5,0.1-0.7v-6.3h3.3L127.8,17.5z"/>
		<path class="st0" d="M130.4,13.7c0-1.3,0-2.4-0.1-3.4h2.9l0.1,1.5h0.1c0.7-1.1,2-1.7,3.3-1.7c2.2,0,3.8,1.4,3.8,4.6v6.2h-3.3V15
			c0-1.4-0.5-2.3-1.7-2.3c-0.8,0-1.5,0.5-1.7,1.3c-0.1,0.3-0.1,0.5-0.1,0.8v6.1h-3.3V13.7z"/>
		<path class="st0" d="M149.9,14.6c0-0.2,0-0.4-0.1-0.6c-0.2-0.9-0.9-1.5-1.8-1.4c-1.2,0-2.2,1.1-2.2,3c0,1.6,0.8,2.8,2.1,2.8
			c0.8,0,1.5-0.5,1.8-1.3c0.1-0.3,0.1-0.6,0.1-0.9L149.9,14.6z M153.1,19.3c0,2-0.4,3.7-1.6,4.7c-1.2,0.9-2.7,1.4-4.3,1.3
			c-1.3,0-2.6-0.2-3.8-0.8l0.6-2.5c0.9,0.5,2,0.8,3.1,0.8c1.4,0.1,2.6-0.9,2.7-2.2c0-0.2,0-0.4,0-0.6v-0.7l0,0
			c-0.7,0.9-1.8,1.4-2.9,1.4c-2.6,0-4.5-2.1-4.5-5.1c0-3.4,2.2-5.6,4.8-5.6c1.2-0.1,2.3,0.5,2.9,1.5l0,0l0.1-1.3h2.9
			c0,0.7-0.1,1.6-0.1,3.2L153.1,19.3z"/>
		<path class="st0" d="M155.9,13.8c0-1.6,0-2.6-0.1-3.5h2.8l0.1,2h0.1c0.4-1.3,1.5-2.2,2.9-2.2c0.2,0,0.5,0,0.7,0.1v3.1
			c-0.3-0.1-0.6-0.1-0.9-0.1c-1.1-0.1-2,0.6-2.2,1.7c-0.1,0.2-0.1,0.5-0.1,0.7v5.3h-3.3L155.9,13.8z"/>
		<path class="st0" d="M169.5,15.9c-1.7,0-3.1,0.4-3.1,1.7c0,0.6,0.4,1.2,1.1,1.3c0.1,0,0.1,0,0.2,0c0.8,0,1.5-0.5,1.7-1.2
			c0-0.2,0.1-0.4,0.1-0.6V15.9z M172.7,18.3c0,0.9,0,1.7,0.2,2.5h-3l-0.2-1.1h-0.1c-0.8,0.9-1.9,1.3-3,1.3c-1.8,0.1-3.3-1.3-3.4-3.1
			c0-0.1,0-0.1,0-0.2c0-2.7,2.5-4,6.2-4v-0.2c0-0.6-0.3-1.4-1.9-1.4c-1,0-2,0.3-2.9,0.8l-0.6-2.1c1.3-0.6,2.7-1,4.1-0.9
			c3.5,0,4.6,2.1,4.6,4.6V18.3z"/>
		<path class="st0" d="M182.3,14.8c0-0.2,0-0.4,0-0.6c-0.2-0.9-1-1.6-1.9-1.6c-1.5,0-2.3,1.3-2.3,3s0.9,2.9,2.2,2.9
			c0.9,0,1.7-0.7,1.9-1.6c0-0.2,0.1-0.5,0.1-0.7L182.3,14.8z M185.6,5.5v12.2c0,1.2,0,2.4,0.1,3.1h-2.9l-0.1-1.5h-0.1
			c-0.7,1.1-2,1.8-3.3,1.8c-2.5,0-4.5-2.1-4.5-5.4c0-3.5,2.2-5.6,4.7-5.6c1.1-0.1,2.1,0.4,2.8,1.2l0,0V5.5H185.6z"/>
		<rect x="65.5" y="26.7" class="st0" width="1.9" height="14.6"/>
		<path class="st0" d="M71.3,33.6c0-1.1,0-2-0.1-2.8h1.7l0.1,1.7l0,0c0.7-1.2,2-2,3.4-1.9c1.4,0,3.7,0.9,3.7,4.4v6.2h-1.9v-6
			c0-1.7-0.6-3.1-2.4-3.1c-1.1,0-2.1,0.8-2.5,1.9c-0.1,0.3-0.1,0.6-0.1,0.9v6.3h-1.9L71.3,33.6z"/>
		<path class="st0" d="M86.1,28.3v2.5h2.7v1.4h-2.7v5.6c0,1.3,0.4,2,1.4,2c0.4,0,0.7,0,1.1-0.1l0.1,1.4c-0.5,0.2-1.1,0.3-1.7,0.3
			c-0.8,0-1.5-0.3-2.1-0.8c-0.6-0.8-0.8-1.8-0.7-2.7v-5.7h-1.6v-1.4h1.6v-1.9L86.1,28.3z"/>
		<path class="st0" d="M98.1,35c0-1.2-0.5-3.1-2.6-3.1c-2,0-2.8,1.8-2.9,3.1H98.1z M92.5,36.3c-0.2,1.8,1.2,3.5,3,3.6
			c0.2,0,0.4,0,0.6,0c1,0,2-0.2,2.9-0.6l0.3,1.3c-1.1,0.5-2.3,0.7-3.5,0.7c-3.2,0-5.1-2.1-5.1-5.3s1.9-5.6,4.9-5.6
			c3.4,0,4.3,3,4.3,4.9c0,0.3,0,0.6-0.1,0.9L92.5,36.3z"/>
		<path class="st0" d="M102.9,34c0-1.2,0-2.3-0.1-3.3h1.7l0.1,2.1h0.1c0.4-1.3,1.5-2.2,2.9-2.3c0.2,0,0.4,0,0.5,0.1v1.8
			c-0.2,0-0.4,0-0.7,0c-1.3,0.1-2.4,1.1-2.6,2.4c0,0.3-0.1,0.6-0.1,0.9v5.6h-1.9L102.9,34z"/>
		<path class="st0" d="M110.6,33.6c0-1.1,0-2-0.1-2.8h1.7l0.1,1.7l0,0c0.7-1.2,2-2,3.4-1.9c1.4,0,3.7,0.9,3.7,4.4v6.2h-1.9v-6
			c0-1.7-0.6-3.1-2.4-3.1c-1.1,0-2.1,0.8-2.5,1.9c-0.1,0.3-0.1,0.6-0.1,0.9v6.3h-1.9V33.6z"/>
		<path class="st0" d="M128.8,35.9c-2.1,0-4.4,0.3-4.4,2.4c-0.1,0.9,0.6,1.7,1.5,1.8c0.1,0,0.2,0,0.3,0c1.1,0,2.2-0.7,2.6-1.8
			c0.1-0.2,0.1-0.4,0.1-0.6V35.9z M130.6,38.7c0,0.8,0,1.7,0.1,2.5h-1.7l-0.2-1.3h-0.1c-0.7,1-1.9,1.6-3.2,1.5
			c-1.7,0.1-3.1-1.1-3.2-2.8c0-0.1,0-0.1,0-0.2c0-2.5,2.2-3.9,6.3-3.9v-0.2c0.2-1.2-0.7-2.3-1.8-2.4c-0.2,0-0.3,0-0.5,0
			c-1,0-1.9,0.3-2.7,0.8l-0.4-1.3c1-0.6,2.2-0.9,3.4-0.9c3.2,0,4,2.2,4,4.3L130.6,38.7z"/>
		<path class="st0" d="M136.5,28.3v2.5h2.7v1.4h-2.7v5.6c0,1.3,0.4,2,1.4,2c0.4,0,0.7,0,1.1-0.1l0.1,1.4c-0.5,0.2-1.1,0.3-1.7,0.3
			c-0.8,0-1.5-0.3-2.1-0.8c-0.6-0.8-0.8-1.8-0.7-2.7v-5.7H133v-1.4h1.6v-1.9L136.5,28.3z"/>
		<path class="st0" d="M142,30.8h1.9v10.4H142V30.8z M142.9,28.9c-0.7,0-1.2-0.5-1.2-1.2c0-0.7,0.5-1.2,1.2-1.2l0,0
			c0.6,0,1.2,0.5,1.2,1.1c0,0,0,0.1,0,0.1C144.1,28.3,143.6,28.8,142.9,28.9C142.9,28.9,142.9,28.9,142.9,28.9L142.9,28.9z"/>
		<path class="st0" d="M152,40c1.8,0,3.2-1.7,3.2-4.1c0-1.8-0.9-4-3.1-4s-3.2,2.1-3.2,4.1C148.8,38.3,150.1,40,152,40 M151.9,41.4
			c-2.8,0-5-2.1-5-5.4c0-3.5,2.3-5.5,5.2-5.5s5,2.2,5,5.3C157.1,39.7,154.4,41.4,151.9,41.4L151.9,41.4z"/>
		<path class="st0" d="M160.1,33.6c0-1.1,0-2-0.1-2.8h1.7l0.1,1.7h0.1c0.7-1.2,2-2,3.4-1.9c1.4,0,3.7,0.9,3.7,4.4v6.2h-1.9v-6
			c0-1.7-0.6-3.1-2.4-3.1c-1.2,0-2.2,0.8-2.6,1.9c-0.1,0.3-0.1,0.6-0.1,0.9v6.3h-1.9L160.1,33.6z"/>
		<path class="st0" d="M178.2,35.9c-2.1,0-4.4,0.3-4.4,2.4c-0.1,0.9,0.6,1.7,1.5,1.8c0.1,0,0.2,0,0.3,0c1.1,0,2.2-0.7,2.6-1.8
			c0.1-0.2,0.1-0.4,0.1-0.6L178.2,35.9z M180.1,38.7c0,0.8,0,1.7,0.1,2.5h-1.7l-0.2-1.3h-0.1c-0.7,1-1.9,1.6-3.2,1.5
			c-1.7,0.1-3.1-1.1-3.2-2.8c0-0.1,0-0.1,0-0.2c0-2.5,2.2-3.9,6.3-3.9v-0.2c0.2-1.2-0.7-2.3-1.8-2.4c-0.2,0-0.3,0-0.5,0
			c-1,0-1.9,0.3-2.7,0.8l-0.4-1.3c1-0.6,2.2-0.9,3.4-0.9c3.2,0,4,2.2,4,4.3L180.1,38.7z"/>
		<rect x="183.7" y="25.9" class="st0" width="1.9" height="15.3"/>
		<polygon class="st0" points="94.5,56.3 94.5,60.7 99.6,60.7 99.6,56.3 100.9,56.3 100.9,66.7 99.6,66.7 99.6,61.8 94.5,61.8 
			94.5,66.7 93.1,66.7 93.1,56.3 		"/>
		<path class="st0" d="M107.9,65.8c2.1,0,3.3-2,3.3-4.3c0-2.1-1.1-4.2-3.3-4.2s-3.4,2.1-3.4,4.4S105.7,65.8,107.9,65.8 M107.9,66.9
			c-2.8,0-4.7-2.1-4.7-5.3c0-3.3,2.1-5.5,4.8-5.5s4.7,2.2,4.7,5.3C112.7,65,110.5,66.9,107.9,66.9L107.9,66.9z"/>
		<path class="st0" d="M114.7,65.1c0.7,0.4,1.6,0.7,2.4,0.7c1.4,0,2.2-0.7,2.2-1.8s-0.6-1.5-2-2.1c-1.7-0.6-2.8-1.5-2.8-3
			c0-1.6,1.3-2.8,3.4-2.8c0.8,0,1.6,0.1,2.3,0.5l-0.4,1.1c-0.6-0.3-1.3-0.5-2-0.5c-1.4,0-2,0.8-2,1.6c0,1,0.6,1.5,2.1,2
			c1.8,0.7,2.7,1.5,2.7,3.1s-1.2,3-3.7,3c-0.9,0-1.9-0.2-2.7-0.7L114.7,65.1z"/>
		<path class="st0" d="M124.3,61.4c0.4,0.1,0.7,0.1,1.1,0.1c1.6,0,2.6-0.8,2.6-2.2s-1-2.1-2.5-2.1c-0.4,0-0.9,0-1.3,0.1V61.4z
			 M123,56.4c0.9-0.1,1.7-0.2,2.6-0.2c1.1-0.1,2.1,0.2,2.9,0.9c0.6,0.6,1,1.4,0.9,2.2c0,0.8-0.3,1.6-0.8,2.2c-0.9,0.8-2,1.2-3.2,1.2
			c-0.4,0-0.7,0-1.1-0.1v4.2H123L123,56.4z"/>
		<rect x="131.7" y="56.3" class="st0" width="1.4" height="10.5"/>
		<polygon class="st0" points="137.8,57.4 134.6,57.4 134.6,56.3 142.4,56.3 142.4,57.4 139.2,57.4 139.2,66.7 137.8,66.7 		"/>
		<path class="st0" d="M148,62.4l-1-3c-0.2-0.7-0.4-1.3-0.5-1.9l0,0c-0.1,0.6-0.3,1.3-0.5,1.9l-1,3L148,62.4z M144.6,63.4l-1.1,3.3
			H142l3.6-10.5h1.6l3.6,10.5h-1.4l-1.1-3.3H144.6z"/>
		<polygon class="st0" points="152.8,56.3 154.1,56.3 154.1,65.6 158.6,65.6 158.6,66.7 152.8,66.7 		"/>
		<rect x="65.1" y="49.5" class="st0" width="120.3" height="0.7"/>
	</g>
</g>
</svg>
