<svg id="Layer_1" data-name="Layer 1" xmlns="http://www.w3.org/2000/svg" viewBox="0 0 1200 628"><defs><style>.cls-1{fill:#676c72;}.cls-2{fill:#ad976e;}</style></defs><path class="cls-1" d="M324.49,571Q291,485.88,289.94,453H298Q299,480.1,327,555.06l1.65,4.3,1.56-4.3q27.68-75,28.59-102.08h8.06q-1.1,32.81-34,118Z"/><rect class="cls-1" x="390.86" y="452.98" width="8.07" height="118.02"/><polygon class="cls-1" points="421.22 452.98 421.22 461.04 446.97 461.04 446.97 571 455.04 571 455.04 461.04 480.79 461.04 480.79 452.98 421.22 452.98"/><path class="cls-1" d="M522,467.09q-11.64,30.78-19.14,55.71l-.73,2.2h43.15l-.64-2.2q-7.7-24.91-19.42-55.71l-1.66-4.31ZM555.42,571Q555,558.63,548,534.25l-.36-1.19H499.81l-.37,1.19q-6.78,24.38-7.24,36.75h-8.07q1.11-32.36,35.19-118h8.34q34.65,85.57,35.74,118Z"/><polygon class="cls-1" points="586.62 452.88 586.62 571 642.97 571 642.97 562.94 594.68 562.94 594.68 452.88 586.62 452.88"/><polygon class="cls-1" points="661.66 452.88 661.66 571 718.02 571 718.02 562.94 669.73 562.94 669.73 452.88 661.66 452.88"/><rect class="cls-1" x="738.6" y="452.98" width="8.06" height="118.02"/><polygon class="cls-1" points="781.11 452.88 781.11 571 789.17 571 789.17 507.58 829.31 507.58 829.31 499.53 789.17 499.53 789.17 460.95 833.34 460.95 833.34 452.88 781.11 452.88"/><polygon class="cls-1" points="853.7 452.88 853.7 571 910.06 571 910.06 562.94 861.76 562.94 861.76 507.5 901.91 507.5 901.91 499.53 861.76 499.53 861.76 460.85 905.93 460.85 905.93 452.88 853.7 452.88"/><path class="cls-2" d="M592.72,322.71a2.08,2.08,0,0,1-1.88-1.19l-112-235.9a2.08,2.08,0,1,1,3.76-1.79L594.6,319.73a2.09,2.09,0,0,1-1.88,3Zm.9,41.38a2.08,2.08,0,0,0,1-2.78L456.31,70.19A2.08,2.08,0,1,0,452.55,72L590.84,363.1a2.08,2.08,0,0,0,1.88,1.19A2.22,2.22,0,0,0,593.62,364.09Zm0-166.36a2.08,2.08,0,0,0,1-2.78l-33.34-70.2a2.1,2.1,0,0,0-2.78-1,2.07,2.07,0,0,0-1,2.78l33.34,70.19a2.09,2.09,0,0,0,2.78,1Zm0,41.59a2.07,2.07,0,0,0,1-2.78L535,111.11a2.1,2.1,0,0,0-2.78-1,2.08,2.08,0,0,0-1,2.78l59.57,125.43a2.06,2.06,0,0,0,2.78,1Zm0,41.59a2.07,2.07,0,0,0,1-2.77L508.79,97.47A2.09,2.09,0,0,0,505,99.26l85.82,180.67a2.07,2.07,0,0,0,2.78,1Zm15.54,40.6,112-235.89a2.08,2.08,0,1,0-3.76-1.79l-112,235.89a2.08,2.08,0,0,0,1.88,3A2.07,2.07,0,0,0,609.16,321.51Zm0,41.59L747.44,72a2.08,2.08,0,1,0-3.76-1.79L605.4,361.31a2.1,2.1,0,0,0,1,2.78,2.26,2.26,0,0,0,.9.2A2.07,2.07,0,0,0,609.16,363.1Zm0-166.36,33.35-70.19a2.09,2.09,0,0,0-3.77-1.8L605.4,195a2.08,2.08,0,0,0,1.88,3A2.07,2.07,0,0,0,609.16,196.74Zm0,41.59L668.74,112.9a2.09,2.09,0,1,0-3.77-1.79L605.4,236.54a2.1,2.1,0,0,0,1,2.78,2.26,2.26,0,0,0,.9.2A2.07,2.07,0,0,0,609.16,238.33Zm0,41.59L695,99.26a2.09,2.09,0,0,0-3.77-1.79L605.4,278.13a2.1,2.1,0,0,0,1,2.78,2.26,2.26,0,0,0,.9.2A2.07,2.07,0,0,0,609.16,279.92Z"/></svg>