<svg id="Layer_1" data-name="Layer 1" xmlns="http://www.w3.org/2000/svg" viewBox="0 0 1200 628"><defs><style>.cls-1{fill:#676c72;}.cls-2{fill:#ad976e;}</style></defs><path class="cls-1" d="M476.23,396.12Q439.63,303,438.43,267h8.82q1.1,29.68,31.69,111.7l1.8,4.72,1.71-4.72q30.29-82,31.29-111.7h8.82q-1.2,35.89-37.2,129.15Z"/><rect class="cls-1" x="548.87" y="266.97" width="8.83" height="129.15"/><polygon class="cls-1" points="582.09 266.97 582.09 275.79 610.27 275.79 610.27 396.12 619.1 396.12 619.1 275.79 647.27 275.79 647.27 266.97 582.09 266.97"/><path class="cls-1" d="M692.35,282.41q-12.72,33.69-21,61l-.81,2.41h47.23l-.7-2.41q-8.42-27.25-21.25-61l-1.81-4.72ZM729,396.12q-.51-13.55-8.13-40.21l-.4-1.3H668.09l-.4,1.3q-7.43,26.67-7.92,40.21h-8.83q1.2-35.4,38.51-129.15h9.12q37.92,93.66,39.11,129.15Z"/><polygon class="cls-1" points="763.09 266.87 763.09 396.12 824.76 396.12 824.76 387.3 771.91 387.3 771.91 266.87 763.09 266.87"/><polygon class="cls-1" points="845.21 266.87 845.21 396.12 906.89 396.12 906.89 387.3 854.04 387.3 854.04 266.87 845.21 266.87"/><rect class="cls-1" x="929.41" y="266.97" width="8.82" height="129.15"/><polygon class="cls-1" points="975.93 266.87 975.93 396.12 984.75 396.12 984.75 326.72 1028.68 326.72 1028.68 317.91 984.75 317.91 984.75 275.69 1033.09 275.69 1033.09 266.87 975.93 266.87"/><polygon class="cls-1" points="1055.37 266.87 1055.37 396.12 1117.03 396.12 1117.03 387.3 1064.19 387.3 1064.19 326.63 1108.12 326.63 1108.12 317.91 1064.19 317.91 1064.19 275.59 1112.52 275.59 1112.52 266.87 1055.37 266.87"/><path class="cls-2" d="M236.58,441.64a2.3,2.3,0,0,1-2.06-1.3L111.9,182.18a2.28,2.28,0,1,1,4.12-2L238.64,438.37a2.29,2.29,0,0,1-1.08,3.05,2.45,2.45,0,0,1-1,.22"/><path class="cls-2" d="M236.58,487.14a2.28,2.28,0,0,1-2.06-1.3L83.19,167.26a2.28,2.28,0,0,1,4.12-2L238.64,483.88a2.28,2.28,0,0,1-2.06,3.26"/><path class="cls-2" d="M236.58,305.09a2.29,2.29,0,0,1-2.06-1.29L198,227a2.28,2.28,0,1,1,4.12-2l36.49,76.82a2.28,2.28,0,0,1-2.06,3.26"/><path class="cls-2" d="M236.58,350.61a2.28,2.28,0,0,1-2.06-1.3L169.33,212a2.28,2.28,0,0,1,1.07-3,2.3,2.3,0,0,1,3,1.08l65.19,137.27a2.28,2.28,0,0,1-2.06,3.26"/><path class="cls-2" d="M236.58,396.12a2.28,2.28,0,0,1-2.06-1.3l-93.91-197.7a2.28,2.28,0,1,1,4.12-2l93.91,197.71a2.28,2.28,0,0,1-2.06,3.26"/><path class="cls-2" d="M252.51,441.63a2.28,2.28,0,0,1-2.06-3.26L373.06,180.22a2.28,2.28,0,1,1,4.12,2L254.57,440.33a2.28,2.28,0,0,1-2.06,1.3"/><path class="cls-2" d="M252.51,487.14a2.28,2.28,0,0,1-2.06-3.26L401.78,165.3a2.28,2.28,0,1,1,4.12,2L254.57,485.84a2.28,2.28,0,0,1-2.06,1.3"/><path class="cls-2" d="M252.51,305.09a2.28,2.28,0,0,1-2.06-3.26L286.94,225a2.28,2.28,0,1,1,4.12,2L254.57,303.8a2.29,2.29,0,0,1-2.06,1.29"/><path class="cls-2" d="M252.51,350.6a2.28,2.28,0,0,1-2.06-3.26l65.19-137.26a2.3,2.3,0,0,1,3.05-1.08,2.28,2.28,0,0,1,1.07,3L254.57,349.31a2.29,2.29,0,0,1-2.06,1.29"/><path class="cls-2" d="M252.51,396.12a2.28,2.28,0,0,1-2.06-3.26l93.91-197.7a2.28,2.28,0,1,1,4.12,2l-93.91,197.7a2.28,2.28,0,0,1-2.06,1.3"/></svg>